<svg width="15" height="15" viewBox="0 0 15 15" fill="none" xmlns="http://www.w3.org/2000/svg">
<mask id="mask0_42_794" style="mask-type:alpha" maskUnits="userSpaceOnUse" x="0" y="0" width="15" height="15">
<rect width="14.2857" height="14.2857" fill="#D9D9D9"/>
</mask>
<g mask="url(#mask0_42_794)">
<path d="M2.38097 11.9047C2.05359 11.9047 1.77333 11.7882 1.54019 11.555C1.30706 11.3219 1.19049 11.0416 1.19049 10.7143V3.5714C1.19049 3.24402 1.30706 2.96377 1.54019 2.73063C1.77333 2.4975 2.05359 2.38093 2.38097 2.38093H11.9048C12.2322 2.38093 12.5124 2.4975 12.7456 2.73063C12.9787 2.96377 13.0953 3.24402 13.0953 3.5714V10.7143C13.0953 11.0416 12.9787 11.3219 12.7456 11.555C12.5124 11.7882 12.2322 11.9047 11.9048 11.9047H2.38097ZM7.14287 7.6339C7.19247 7.6339 7.24456 7.62646 7.29912 7.61158C7.35368 7.5967 7.40577 7.57438 7.45537 7.54462L11.6667 4.91069C11.746 4.86109 11.8056 4.79908 11.8453 4.72468C11.8849 4.65027 11.9048 4.56843 11.9048 4.47914C11.9048 4.28073 11.8205 4.13192 11.6518 4.03271C11.4831 3.93351 11.3095 3.93847 11.131 4.04759L7.14287 6.5476L3.15478 4.04759C2.9762 3.93847 2.80259 3.93599 2.63394 4.04015C2.46529 4.14432 2.38097 4.29065 2.38097 4.47914C2.38097 4.57835 2.40081 4.66515 2.44049 4.73956C2.48017 4.81396 2.5397 4.87101 2.61906 4.91069L6.83037 7.54462C6.87997 7.57438 6.93206 7.5967 6.98662 7.61158C7.04119 7.62646 7.09327 7.6339 7.14287 7.6339Z" fill="#4B5565"/>
</g>
</svg>
